<svg width="694" height="128" viewBox="0 0 694 128" fill="none" xmlns="http://www.w3.org/2000/svg">
<path d="M0 96V74.6875H74.625L85.3125 64L74.625 53.375H0V21.375L21.3125 0H106.625V21.375H32L21.3125 32H85.3125L106.625 53.375V74.6875L85.3125 96H0ZM138.688 96L117.375 74.6875V53.375L138.688 32H224V53.375H149.375L138.688 64L149.375 74.6875H224V96H138.688ZM234.75 96V53.375L256.062 32H341.375V53.375H266.75L256.062 64V96H234.75ZM352.125 96V74.6875H394.75V53.375H352.125V32H416.125V74.6875H458.75V96H352.125ZM394.75 21.375V0H416.125V21.375H394.75ZM544.125 74.6875L554.812 64L544.125 53.375H501.5L490.812 64V74.6875H544.125ZM469.5 128V53.375L490.812 32H554.812L576.125 53.375V74.6875L554.812 96H490.812V128H469.5ZM650.875 96L629.5 74.6875V53.375H586.875V32H629.5V0H650.875V32H693.5V53.375H650.875V64L661.5 74.6875H693.5V96H650.875Z" fill="url(#paint0_linear_125_2)"/>
<defs>
<linearGradient id="paint0_linear_125_2" x1="0" y1="48" x2="705" y2="48" gradientUnits="userSpaceOnUse">
<stop stop-color="#16F585"/>
<stop offset="1" stop-color="#16F5F5"/>
</linearGradient>
</defs>
</svg>
